# File created by Blade
# Date/Time:  Mon Nov 18 17:26:10 2013
# Frame Rate: 100.000 fps
#------------------------------------------------------
:FULLY-SPECIFIED
:DEGREES
207
root -37.090899 -2.969702 39.022142 9.322418 -2.490318 16.331000
Spine 22.117128 -3.503929 2.415337
Spine1 8.103238 -1.262745 4.879147
Spine2 -22.432620 -1.385671 -0.003474
NeckDummy -0.092148 0.193905 0.919818 13.603341 -0.921623 0.418282
Neck 1.772769 -14.889332 40.370938
Head -0.436846 0.070562 0.306162 -5.950285 -5.098254 -2.227481
LeftShoulderDummy -0.141444 0.217094 0.947750 13.601458 -1.104723 0.671170
LeftShoulder 5.566915 -9.686070 15.783568
LeftArm 18.002461 38.312523 20.878917
LeftForeArm 48.857749
LeftForeArmRoll 20.874432
LeftHand -33.879383 -23.434526 12.575778
LeftHandThumb1 14.011949 4.447142
LeftHandIndex1 -0.080538 40.365270
LeftHandPinky1 1.542993 60.419399
RightShoulderDummy -0.077685 0.196016 0.884656 13.580357 0.899326 -0.361208
RightShoulder 6.328410 4.456800 7.707207
RightArm 6.540900 64.960073 42.473517
RightForeArm 101.066193
RightForeArmRoll 22.304752
RightHand -45.897219 -24.369349 11.001908
RightHandThumb1 14.103750 6.850566
RightHandIndex1 3.049156 30.160490
RightHandPinky1 9.087440 59.979906
LeftUpLeg -5.632310 22.102798 -44.307100
LeftLeg 47.623988
LeftFoot 0.056595 -0.679794 -1.532689 -21.723038 16.554835 -5.802131
LeftToeBase 0.585450
RightUpLeg -6.293652 19.838361 -29.838445
RightLeg 45.670901
RightFoot -0.667755 0.887229 0.715069 -21.677666 8.995135 -17.222206
RightToeBase -2.039195
208
root -36.919551 -2.944275 38.969355 9.611606 -2.598621 16.236415
Spine 22.056125 -3.532622 2.463404
Spine1 8.082114 -1.280982 4.997152
Spine2 -22.434412 -1.347119 -0.049328
NeckDummy -0.090811 0.195124 0.922120 13.554030 -0.874371 0.345476
Neck 1.617645 -14.852616 40.238728
Head -0.439657 0.068347 0.312805 -6.030273 -5.164817 -2.214803
LeftShoulderDummy -0.140886 0.217510 0.949224 13.550936 -1.060776 0.611329
LeftShoulder 5.409145 -9.453747 15.534035
LeftArm 18.146495 38.314796 21.008932
LeftForeArm 48.692564
LeftForeArmRoll 20.880670
LeftHand -33.789812 -23.648897 12.802510
LeftHandThumb1 13.998334 4.590709
LeftHandIndex1 0.069565 40.943072
LeftHandPinky1 1.621353 60.800504
RightShoulderDummy -0.076318 0.198995 0.887825 13.529852 0.852026 -0.289909
RightShoulder 6.328446 4.328942 7.694180
RightArm 7.323479 65.346094 43.035169
RightForeArm 100.932401
RightForeArmRoll 22.160476
RightHand -45.769273 -24.336111 10.746376
RightHandThumb1 14.593105 7.037606
RightHandIndex1 3.221844 30.935748
RightHandPinky1 9.048769 60.405256
LeftUpLeg -5.471313 21.987843 -44.671045
LeftLeg 47.854682
LeftFoot 0.051082 -0.673539 -1.539414 -21.452474 16.568994 -5.939200
LeftToeBase 0.624566
RightUpLeg -6.396956 19.942973 -30.137845
RightLeg 45.476026
RightFoot -0.658111 0.890099 0.701403 -21.552859 8.944984 -16.679425
RightToeBase -2.266414
209
root -36.756830 -2.918116 38.915824 9.895377 -2.688380 16.138007
Spine 22.047570 -3.620284 2.497513
Spine1 8.070744 -1.306592 5.048051
Spine2 -22.515614 -1.231548 -0.091319
NeckDummy -0.084974 0.200133 0.930341 13.516210 -0.820497 0.246493
Neck 1.444296 -14.832534 40.197210
Head -0.443993 0.063412 0.319046 -6.079194 -5.221179 -2.241391
LeftShoulderDummy -0.135458 0.220816 0.956374 13.513364 -1.008782 0.509273
LeftShoulder 5.270104 -9.265858 15.437071
LeftArm 18.258598 38.249596 21.129720
LeftForeArm 48.541543
LeftForeArmRoll 21.047679
LeftHand -33.917515 -23.545673 13.058058
LeftHandThumb1 14.061086 3.958265
LeftHandIndex1 -0.184925 40.968870
LeftHandPinky1 1.712669 60.944431
RightShoulderDummy -0.070575 0.206507 0.897024 13.491021 0.798258 -0.187118
RightShoulder 6.325355 4.183636 7.599417
RightArm 7.895597 65.683503 43.471319
RightForeArm 100.850244
RightForeArmRoll 22.059485
RightHand -45.741029 -23.989609 10.302588
RightHandThumb1 14.697601 6.850689
RightHandIndex1 3.072573 30.966552
RightHandPinky1 8.998065 60.370479
LeftUpLeg -5.343633 21.851909 -45.028626
LeftLeg 48.075208
LeftFoot 0.043203 -0.671768 -1.547405 -21.203019 16.628435 -6.059031
LeftToeBase 0.687322
RightUpLeg -6.552722 20.043752 -30.466666
RightLeg 45.335333
RightFoot -0.643623 0.889688 0.685058 -21.434709 8.934996 -16.123240
RightToeBase -2.496581
210
root -36.601418 -2.892541 38.862447 10.167674 -2.810477 16.037992
Spine 22.034524 -3.657490 2.527425
Spine1 8.051930 -1.328471 5.123983
Spine2 -22.548688 -1.130280 -0.088321
NeckDummy -0.080837 0.202805 0.934529 13.487760 -0.805845 0.267228
Neck 1.396684 -14.953990 40.089162
Head -0.444221 0.059679 0.325528 -6.158238 -5.252753 -2.200355
LeftShoulderDummy -0.131663 0.224014 0.959826 13.484137 -0.991363 0.519868
LeftShoulder 5.133890 -9.173971 15.200830
LeftArm 18.450221 38.235356 21.204188
LeftForeArm 48.380356
LeftForeArmRoll 21.101460
LeftHand -33.816275 -23.674691 13.128528
LeftHandThumb1 13.976285 4.141612
LeftHandIndex1 0.224049 41.129088
LeftHandPinky1 1.904848 61.234161
RightShoulderDummy -0.066077 0.209162 0.901469 13.461239 0.782273 -0.207129
RightShoulder 6.282698 4.248631 7.540789
RightArm 8.593057 66.050471 44.075022
RightForeArm 100.746103
RightForeArmRoll 21.875470
RightHand -45.759680 -24.005466 9.995479
RightHandThumb1 14.818331 6.744646
RightHandIndex1 3.206417 31.403901
RightHandPinky1 9.206785 60.560437
LeftUpLeg -5.216035 21.756983 -45.382174
LeftLeg 48.290274
LeftFoot 0.039175 -0.667761 -1.552343 -20.885462 16.665403 -6.195353
LeftToeBase 0.792920
RightUpLeg -6.653182 20.131532 -30.820593
RightLeg 45.236921
RightFoot -0.633584 0.903150 0.668187 -21.277248 8.779489 -15.701040
RightToeBase -2.671762
211
root -36.457072 -2.867538 38.805649 10.453558 -2.927232 15.927311
Spine 22.017746 -3.701174 2.560988
Spine1 8.046634 -1.354081 5.195725
Spine2 -22.602651 -1.064697 -0.096859
NeckDummy -0.078411 0.206380 0.940212 13.474723 -0.792376 0.268558
Neck 1.294123 -15.028200 40.104694
Head -0.447448 0.053999 0.326122 -6.128423 -5.317464 -2.213537
LeftShoulderDummy -0.129059 0.227898 0.965270 13.471120 -0.978099 0.524869
LeftShoulder 5.013862 -9.075976 15.037180
LeftArm 18.669266 38.151904 21.347378
LeftForeArm 48.260194
LeftForeArmRoll 21.269842
LeftHand -33.833981 -23.697181 13.102670
LeftHandThumb1 13.520698 4.769699
LeftHandIndex1 0.323777 41.225432
LeftHandPinky1 2.153604 61.280685
RightShoulderDummy -0.063524 0.213029 0.907468 13.448019 0.767282 -0.204423
RightShoulder 6.223138 4.258713 7.440867
RightArm 9.240567 66.389757 44.650957
RightForeArm 100.682143
RightForeArmRoll 21.847222
RightHand -45.805062 -24.259909 9.749814
RightHandThumb1 15.346834 7.068855
RightHandIndex1 3.307255 32.182962
RightHandPinky1 9.394419 60.955005
LeftUpLeg -5.144881 21.651278 -45.745900
LeftLeg 48.487669
LeftFoot 0.037802 -0.668629 -1.554539 -20.707899 16.728429 -6.279323
LeftToeBase 0.812803
RightUpLeg -6.690072 20.237240 -31.231106
RightLeg 45.174955
RightFoot -0.600954 0.885943 0.657096 -21.074377 8.711071 -15.037061
RightToeBase -2.965122
